<?xml version="1.0" encoding="UTF-8"?>
<svg version="1.1" xmlns="http://www.w3.org/2000/svg" width="1024" height="1024">
<path d="M0 0 C3.53947839 1.17982613 3.86318796 1.94230533 5.76953125 5.01953125 C8.829728 9.79230652 12.17815985 14.23859724 15.6875 18.6875 C16.29835449 19.46641602 16.90920898 20.24533203 17.53857422 21.04785156 C18.7759471 22.62515495 20.01453383 24.20150691 21.25439453 25.77685547 C22.82218821 27.77354487 24.38038585 29.77711489 25.93359375 31.78515625 C30.63516417 37.84890321 35.44927106 43.79396917 40.4375 49.625 C40.9339502 50.20540039 41.43040039 50.78580078 41.94189453 51.38378906 C44.00165397 53.76936627 45.99202642 55.99330581 48.41015625 58.0234375 C50 60 50 60 49.984375 62.70703125 C48.73805913 66.87625458 47.04017108 70.72748644 45.25 74.6875 C34.05519044 100.2971653 30.47520893 128.9922234 40.625 155.5625 C50.35134443 179.24564067 69.00761123 196.03173124 91.5 207.4375 C92.19480469 207.79191162 92.88960937 208.14632324 93.60546875 208.51147461 C96.58125157 209.98511559 98.63504886 211 102 211 C102 211.66 102 212.32 102 213 C117.50959915 216.95776041 133.0636675 219.51417815 149 221 C149.93512434 223.80537303 150.12182907 225.48165364 150.11352539 228.37963867 C150.11344986 229.26032516 150.11337433 230.14101166 150.11329651 231.04838562 C150.10813522 231.99534805 150.10297394 232.94231049 150.09765625 233.91796875 C150.09553383 235.37654045 150.09553383 235.37654045 150.09336853 236.86457825 C150.08776817 239.97225004 150.07521562 243.07984996 150.0625 246.1875 C150.05748505 248.29361875 150.05292213 250.39973863 150.04882812 252.50585938 C150.03779862 257.67060064 150.02053375 262.83528813 150 268 C146.56501573 269.98355733 143.12659767 271.96108444 139.6875 273.9375 C138.71103516 274.50146484 137.73457031 275.06542969 136.72851562 275.64648438 C135.79072266 276.18466797 134.85292969 276.72285156 133.88671875 277.27734375 C132.59060669 278.02359009 132.59060669 278.02359009 131.26831055 278.78491211 C129 280 129 280 126 281 C125.67 281.66 125.34 282.32 125 283 C123.47097374 283.93226067 121.89963386 284.79551982 120.3125 285.625 C108.29727945 292.03107422 96.5888577 298.98127749 84.83422852 305.84985352 C78.26661176 309.68531687 71.68119798 313.48584808 65.0703125 317.24609375 C60.02572116 320.12780051 55.01224111 323.06242279 50 326 C58.06189358 331.1608941 66.32499629 335.90744639 74.6875 340.5625 C126.19680813 369.25487333 126.19680813 369.25487333 141 382 C141.92425781 382.70382812 142.84851563 383.40765625 143.80078125 384.1328125 C144.52652344 384.74898437 145.25226563 385.36515625 146 386 C146 386.66 146 387.32 146 388 C146.99 388.33 147.98 388.66 149 389 C159.96733923 399.35642644 168.36150907 413.11922369 176 426 C176.36947754 426.62181152 176.73895508 427.24362305 177.11962891 427.88427734 C199.95906656 466.66106844 214.61075418 509.01634959 228.55322266 551.59033203 C229.68238993 555.0373279 230.82274507 558.48044671 231.96810913 561.92208862 C244.29701466 599.01860537 255.12216798 636.62882553 265.86523438 674.20996094 C266.07438477 674.93943436 266.28353516 675.66890778 266.49902344 676.42048645 C267.04985888 678.34291287 267.59827649 680.26603163 268.14648438 682.18920898 C268.889334 684.91869997 268.889334 684.91869997 270 687 C272.31418256 679.05906241 274.62705078 671.11774256 276.93915939 663.17620087 C277.49866458 661.2545865 278.05830734 659.33301219 278.61795044 657.41143799 C282.59791674 643.7437436 286.5669425 630.07409419 290.4375 616.375 C293.9504072 604.00599261 297.71893214 591.7234232 301.59228516 579.46289062 C302.61786244 576.21576678 303.63719916 572.96673941 304.65380859 569.71679688 C340.64903013 454.71003851 340.64903013 454.71003851 374 409 C374.44375977 408.38415039 374.88751953 407.76830078 375.34472656 407.13378906 C390.41310051 386.42174582 409.00531547 372.01748381 431.16064453 359.59863281 C434.30283793 357.82949417 437.43144375 356.03777977 440.55859375 354.2421875 C455.97991977 345.38827794 471.46669296 336.65602757 487 328 C487 326.68 487 325.36 487 324 C486.51982422 323.74009277 486.03964844 323.48018555 485.54492188 323.21240234 C474.29308611 317.10751403 463.17118758 310.8125059 452.13208008 304.33105469 C445.35579848 300.3578782 438.53902619 296.46673798 431.6875 292.625 C422.80478978 287.6370824 414.0111472 282.50989741 405.25 277.3125 C404.65561127 276.96012268 404.06122253 276.60774536 403.44882202 276.24468994 C393.61922705 270.41281803 393.61922705 270.41281803 390 268 C389.63923645 265.97518921 389.63923645 265.97518921 389.65942383 263.45849609 C389.65965042 262.51767181 389.65987701 261.57684753 389.66011047 260.60751343 C389.67559433 259.58976837 389.69107819 258.57202332 389.70703125 257.5234375 C389.71127609 256.48305328 389.71552094 255.44266907 389.71989441 254.37075806 C389.73672518 251.03857853 389.77438578 247.70699759 389.8125 244.375 C389.82754113 242.11980038 389.84123053 239.86459131 389.85351562 237.609375 C389.88664301 232.07271145 389.9368858 226.53639848 390 221 C390.74524933 220.91950912 391.49049866 220.83901825 392.2583313 220.75608826 C427.3302871 216.94922242 459.76768631 208.82374781 484 181 C490.53171371 172.75631406 490.53171371 172.75631406 494 163 C494.98211022 161.98242469 495.98394385 160.98368181 497 160 C508.37400434 137.14796079 507.27128223 110.5968689 499.3515625 86.9375 C496.67102131 79.29973279 493.81599621 71.88332496 489.65234375 64.91015625 C489 63 489 63 489.640625 61.04296875 C491.23608362 58.64519617 492.96315954 56.45960159 494.8125 54.25 C495.61429688 53.28320312 496.41609375 52.31640625 497.2421875 51.3203125 C497.68272461 50.79083008 498.12326172 50.26134766 498.57714844 49.71582031 C519.18362258 26.15050767 519.18362258 26.15050767 536 0 C539.6828415 1.22761383 539.85572496 2.04034508 541.6015625 5.390625 C542.08737793 6.31738037 542.57319336 7.24413574 543.07373047 8.19897461 C543.58564941 9.20581299 544.09756836 10.21265137 544.625 11.25 C545.15625488 12.28326416 545.68750977 13.31652832 546.23486328 14.38110352 C551.31462895 24.39024203 555.80222042 34.59463437 560 45 C560.42055664 46.0202124 560.42055664 46.0202124 560.84960938 47.06103516 C577.88668035 88.57049141 582.24381941 133.71565809 582.07516479 178.17614746 C582.06210827 181.66724252 582.05581027 185.15829836 582.05102539 188.64941406 C582.03782283 197.33626327 582.01391963 206.02307575 581.98962402 214.7098999 C581.8696427 253.03533024 581.8696427 253.03533024 582.421875 291.35546875 C582.44045563 292.18143051 582.45903625 293.00739227 582.47817993 293.85838318 C583.47865075 336.76327277 589.1386676 379.04658185 598 421 C598.37294189 422.77938965 598.37294189 422.77938965 598.75341797 424.59472656 C610.16077265 478.31968733 628.37476142 538.06214213 659 584 C654.90703812 583.44274228 652.68625229 581.28367665 649.625 578.625 C648.54832424 577.7040322 647.47014123 576.78482419 646.390625 575.8671875 C645.83181641 575.39120117 645.27300781 574.91521484 644.69726562 574.42480469 C641.97214051 572.13714212 639.17853099 569.94038465 636.375 567.75 C635.80088379 567.30092285 635.22676758 566.8518457 634.63525391 566.38916016 C632.75851937 564.92393213 630.87957549 563.46158173 629 562 C627.93507324 561.17145508 627.93507324 561.17145508 626.84863281 560.32617188 C623.79290691 557.94905351 620.73668596 555.57257313 617.67993164 553.19677734 C606.26700576 544.32451238 594.92607787 535.36768621 583.64990234 526.32226562 C581.45726478 524.56504085 579.25952629 522.81423285 577.0625 521.0625 C571.89076023 516.92684951 566.75509969 512.74688347 561.61938477 508.56665039 C560.32868148 507.51625536 559.03682841 506.46727107 557.74365234 505.41992188 C556.19989724 504.16278386 554.6710485 502.88738944 553.14453125 501.609375 C551.18026664 499.79992231 551.18026664 499.79992231 549 500 C548.56171875 500.79019531 548.1234375 501.58039063 547.671875 502.39453125 C543.71565281 509.4304955 539.58917002 516.31816897 535.25 523.125 C531.08915014 529.65240302 527.02502679 536.22527244 523.0625 542.875 C519.0402672 549.62251941 514.961304 556.32953707 510.8125 563 C505.9645601 570.79535113 501.17874475 578.62684308 496.42324829 586.47879028 C485.87571075 603.89148607 485.87571075 603.89148607 481.125 611.5625 C480.73868408 612.19260986 480.35236816 612.82271973 479.9543457 613.47192383 C478.20155698 616.28461259 476.49338362 618.79672705 474 621 C473.05640625 620.03900391 473.05640625 620.03900391 472.09375 619.05859375 C471.2378125 618.19363281 470.381875 617.32867188 469.5 616.4375 C468.24703125 615.16712891 468.24703125 615.16712891 466.96875 613.87109375 C464.77986434 611.70582231 462.50107292 609.68054751 460.16796875 607.671875 C455.83813119 603.9194514 451.82355863 599.9003253 447.8125 595.8125 C443.69279499 591.61528408 439.63239256 587.63584425 435 584 C433.30967655 582.35733077 431.64587396 580.68720315 430 579 C419.7346212 568.47948344 419.7346212 568.47948344 408.83984375 558.62890625 C405.70045368 555.84944625 402.85605833 552.77129016 399.98046875 549.72265625 C398.06021914 547.67185538 398.06021914 547.67185538 395 548 C393.66509948 549.53821591 393.66509948 549.53821591 392.5390625 551.63671875 C392.0747583 552.43013672 391.6104541 553.22355469 391.13208008 554.04101562 C390.63474365 554.91435547 390.13740723 555.78769531 389.625 556.6875 C388.539241 558.54643848 387.45195449 560.40448547 386.36328125 562.26171875 C385.80463379 563.21997559 385.24598633 564.17823242 384.67041016 565.16552734 C382.12272276 569.48862742 379.47004173 573.74386832 376.8125 578 C371.67607608 586.25968215 366.60503876 594.55781667 361.5625 602.875 C361.01935654 603.77085815 361.01935654 603.77085815 360.46524048 604.68481445 C359.0137144 607.07924082 357.56235128 609.4737658 356.11128235 611.86846924 C352.74866024 617.41707303 349.37533577 622.95912448 346 628.5 C340.88942921 636.89194821 335.7862096 645.28834128 330.6875 653.6875 C330.33255463 654.27220062 329.97760925 654.85690125 329.61190796 655.45932007 C327.07441641 659.63943206 324.53718018 663.81969901 322 668 C313.94329649 681.27436104 305.88649658 694.54864636 297.8125 707.8125 C297.25216064 708.73361572 296.69182129 709.65473145 296.11450195 710.60375977 C293.16066718 715.45792195 290.19997949 720.30775339 287.23046875 725.15234375 C286.60615967 726.17287842 285.98185059 727.19341309 285.33862305 728.24487305 C284.15866488 730.17344894 282.97670957 732.10080516 281.79223633 734.02661133 C277.99070191 740.24601467 274.43556905 746.57146223 271 753 C270.34 753 269.68 753 269 753 C267.4701041 750.63223008 266.06677504 748.26704107 264.6875 745.8125 C263.77824044 744.23050504 262.86667933 742.64983125 261.953125 741.0703125 C261.47037109 740.23532227 260.98761719 739.40033203 260.49023438 738.54003906 C258.04725363 734.37608564 255.49286096 730.28311644 252.9375 726.1875 C247.75831318 717.86585905 242.64379421 709.50661151 237.5625 701.125 C236.83276415 699.92179333 236.10302783 698.71858695 235.37329102 697.51538086 C232.62083423 692.97617197 229.86982763 688.4360852 227.11962891 683.89550781 C220.71313073 673.32242342 214.25898434 662.78397249 207.6875 652.3125 C202.09362923 643.39772776 196.58199169 634.4364391 191.125 625.4375 C190.75987305 624.8354071 190.39474609 624.23331421 190.01855469 623.61297607 C186.05169951 617.0682411 182.10482791 610.51199782 178.1875 603.9375 C174.4552435 597.69314778 170.56640022 591.55529284 166.66430664 585.41601562 C161.43685587 577.16380839 156.42151919 568.78846451 151.42675781 560.39404297 C148.96109092 556.25675181 146.4801171 552.12863996 144 548 C139.83337605 548.51331461 137.93733427 550.73058101 135.078125 553.6640625 C134.61444519 554.13435883 134.15076538 554.60465515 133.67303467 555.08920288 C132.19140164 556.5941856 130.7202616 558.10891332 129.25 559.625 C127.32163371 561.60022739 125.38885032 563.57104756 123.453125 565.5390625 C122.98422852 566.01664001 122.51533203 566.49421753 122.03222656 566.98626709 C118.70964835 570.34629717 115.2602972 573.49464076 111.66699219 576.56005859 C109.49766354 578.43391629 107.49535126 580.44325332 105.5 582.5 C102.11758601 585.9288279 98.61929558 589.12048518 94.96484375 592.25390625 C92.89179676 594.09615675 90.94564198 596.02401662 89 598 C86.50060236 600.53814799 83.96218208 602.94128303 81.25 605.25 C75.51898432 610.16721146 70.2959677 615.62459278 65 621 C62.56377313 618.74955282 60.90953169 616.43007425 59.20703125 613.58984375 C58.66771973 612.69612061 58.1284082 611.80239746 57.57275391 610.8815918 C56.99187012 609.9100415 56.41098633 608.93849121 55.8125 607.9375 C54.54621677 605.83815317 53.27926457 603.73920974 52.01171875 601.640625 C51.02244385 599.9999707 51.02244385 599.9999707 50.01318359 598.32617188 C46.74629771 592.92863935 43.43610969 587.55797825 40.125 582.1875 C39.46193848 581.11105225 38.79887695 580.03460449 38.11572266 578.92553711 C36.76209722 576.72805721 35.4082551 574.53071078 34.05419922 572.33349609 C28.0308226 562.55893175 22.01256693 552.7812173 16 543 C15.49662109 542.18128418 14.99324219 541.36256836 14.47460938 540.51904297 C6.21413251 527.07410598 -1.89718999 513.54033022 -10 500 C-13.53446191 502.0537061 -16.14079924 504.08755528 -19 507 C-21.1713669 508.75645603 -23.35178115 510.48247555 -25.5625 512.1875 C-30.91405736 516.351759 -36.19605568 520.58709456 -41.43359375 524.89453125 C-50.77775713 532.56044307 -60.32149042 539.9791644 -69.83203125 547.43652344 C-78.5676971 554.28756758 -87.28845019 561.15322614 -95.890625 568.171875 C-96.58816895 568.7405127 -97.28571289 569.30915039 -98.00439453 569.89501953 C-99.37638892 571.01428642 -100.7472359 572.1349619 -102.11669922 573.25732422 C-106.13597584 576.53723878 -110.22193698 579.68029885 -114.42919922 582.71630859 C-116.13736866 583.9334196 -116.13736866 583.9334196 -117 586 C-117.66 586 -118.32 586 -119 586 C-118.07814006 581.8502327 -116.22576141 578.35269209 -114.24609375 574.62109375 C-113.46993174 573.13821155 -112.69414856 571.65513102 -111.91870117 570.171875 C-111.5131601 569.39908203 -111.10761902 568.62628906 -110.68978882 567.83007812 C-103.85412171 554.77009758 -97.23397533 541.7945076 -92 528 C-91.53851563 526.81164551 -91.07703125 525.62329102 -90.6015625 524.39892578 C-70.70249757 473.15252142 -57.1140338 420.52530063 -49.6875 366.0625 C-49.56421326 365.16067993 -49.44092651 364.25885986 -49.31390381 363.32971191 C-48.48760407 357.22606653 -47.72281111 351.11672391 -47 345 C-46.86298676 343.87087189 -46.86298676 343.87087189 -46.72320557 342.71893311 C-41.65679528 299.93291647 -42.62826519 256.48181731 -42.45739746 213.47064209 C-42.40854093 201.25380671 -42.34859753 189.03702238 -42.28178078 176.82027286 C-42.25731729 172.27884133 -42.23779601 167.73742501 -42.22229558 163.1959545 C-42.12517817 136.34750737 -42.12517817 136.34750737 -41.25527859 124.48181248 C-41.02166196 121.11964071 -40.88320576 118.21460758 -42 115 C-41.01 115 -40.02 115 -39 115 C-38.98582031 114.32839844 -38.97164063 113.65679687 -38.95703125 112.96484375 C-38.4036485 101.37371863 -35.7319676 90.24331408 -33 79 C-32.78746582 78.12279297 -32.57493164 77.24558594 -32.35595703 76.34179688 C-27.03626299 54.9645838 -18.37388813 34.40291792 -8 15 C-7.24319391 13.56786454 -6.48669344 12.13556754 -5.73046875 10.703125 C-3.83626697 7.12668871 -1.92359847 3.56070355 0 0 Z " fill="#EDBA99" transform="translate(242,221)"/>
<path d="M0 0 C1.37285156 1.08474609 1.37285156 1.08474609 2.7734375 2.19140625 C7.93515942 6.3252208 12.88646972 10.64819155 17.75 15.125 C18.30727783 15.63417969 18.86455566 16.14335937 19.4387207 16.66796875 C22.42164571 19.42405365 25.07822444 22.25614827 27.6875 25.375 C29.15908857 27.04720219 29.15908857 27.04720219 31 28 C34.58055619 28.01118924 37.62682085 27.13004327 41 26 C41.63679687 25.84660156 42.27359375 25.69320312 42.9296875 25.53515625 C65.89492767 19.59885832 85.40290196 2.831069 99.82421875 -15.38671875 C102.07600919 -18.09129291 104.4775898 -20.5482703 107 -23 C104.99105049 -15.50053714 102.21968741 -8.58961508 98.9375 -1.5625 C98.44926758 -0.51263916 97.96103516 0.53722168 97.45800781 1.61889648 C78.08763678 42.92041413 50.73441002 77.68888483 18.41723633 109.59912109 C15.3863007 112.59507434 12.37999271 115.61489529 9.38671875 118.6484375 C4.09951925 123.98919764 -1.24922672 129.1567069 -7 134 C-7.95390625 134.80824219 -8.9078125 135.61648437 -9.890625 136.44921875 C-11.52567405 137.83440574 -13.16167149 139.21840516 -14.80029297 140.59936523 C-17.71376324 143.0558614 -20.61435526 145.52524104 -23.4921875 148.0234375 C-29.8627788 153.54585742 -36.2809442 158.89946403 -43.08984375 163.87915039 C-44.42766336 164.87476145 -45.71923702 165.93198835 -47 167 C-47 167.66 -47 168.32 -47 169 C-47.66644531 169.21011719 -48.33289063 169.42023438 -49.01953125 169.63671875 C-53.04810656 171.47940916 -56.22486483 174.07556681 -59.6875 176.8125 C-61.21611169 177.99781898 -62.74610287 179.18136071 -64.27734375 180.36328125 C-65.06093262 180.96865723 -65.84452148 181.5740332 -66.65185547 182.19775391 C-85.5809349 196.72618647 -105.56683684 209.47780636 -127 220 C-127.6285791 220.31001953 -128.2571582 220.62003906 -128.90478516 220.93945312 C-137.90936466 225.29899037 -137.90936466 225.29899037 -141.5078125 224.3125 C-144.12903269 222.93204548 -146.54659225 221.41053817 -149 219.75 C-166.37915387 208.61249151 -185.47817725 204.37565453 -205.91015625 207.62109375 C-217.41379794 210.34277554 -228.56154323 215.46393679 -237.9375 222.6875 C-241.38655552 225.07834753 -241.38655552 225.07834753 -243.9765625 224.74755859 C-244.66492188 224.48797363 -245.35328125 224.22838867 -246.0625 223.9609375 C-246.85068115 223.66437256 -247.6388623 223.36780762 -248.45092773 223.06225586 C-253.05109068 221.14526429 -257.57040195 219.09539835 -262.0625 216.9375 C-263.57106567 216.21385254 -263.57106567 216.21385254 -265.11010742 215.47558594 C-273.80937438 211.22757455 -281.99035282 206.4262057 -290 201 C-291.28777344 200.12988281 -291.28777344 200.12988281 -292.6015625 199.2421875 C-295.08736067 197.5212503 -297.54193305 195.76031596 -300 194 C-301.21514342 193.15350713 -302.43138438 192.30858863 -303.6484375 191.46484375 C-318.40899066 181.19886574 -332.85173566 170.43164066 -346.67578125 158.9296875 C-349.04894275 156.95936518 -351.45674371 155.03961309 -353.875 153.125 C-362.98652264 145.84153956 -371.82336198 138.298745 -380.33520508 130.32324219 C-383.08531796 127.74851573 -385.87256151 125.24009929 -388.73046875 122.78515625 C-393.87151497 118.30737187 -398.6791936 113.50480291 -403.5 108.6875 C-404.4178125 107.78193359 -405.335625 106.87636719 -406.28125 105.94335938 C-407.1475 105.07904297 -408.01375 104.21472656 -408.90625 103.32421875 C-409.69322266 102.54135498 -410.48019531 101.75849121 -411.29101562 100.9519043 C-413 99 -413 99 -413 97 C-413.66 97 -414.32 97 -415 97 C-415 96.34 -415 95.68 -415 95 C-415.99 94.67 -416.98 94.34 -418 94 C-419.47265625 92.5390625 -419.47265625 92.5390625 -421.0625 90.625 C-423.88013056 87.29346198 -426.7776669 84.06943112 -429.75 80.875 C-435.53037136 74.51920706 -440.81387475 67.84547899 -446 61 C-446.50402344 60.34177246 -447.00804687 59.68354492 -447.52734375 59.00537109 C-465.17405998 35.84130562 -483.36657065 7.39034068 -491 -21 C-490.67 -21.99 -490.34 -22.98 -490 -24 C-489.34257812 -23.03513672 -489.34257812 -23.03513672 -488.671875 -22.05078125 C-473.58722176 -0.55821638 -452.3813124 19.34686163 -426 25 C-425.13375 25.37125 -424.2675 25.7425 -423.375 26.125 C-420.12168578 27.32358945 -418.45641766 27.67772895 -415 27 C-412.72368001 25.0512999 -410.73329661 22.98135436 -408.734375 20.75 C-407.87585938 19.88375 -407.87585938 19.88375 -407 19 C-406.34 19 -405.68 19 -405 19 C-405 18.34 -405 17.68 -405 17 C-403.51261765 15.64617851 -401.95569449 14.36860114 -400.375 13.125 C-397.14275494 10.54988227 -393.94155948 7.97909321 -390.85546875 5.23046875 C-368.21998152 -14.90286011 -341.72835038 -29.79219869 -314.125 -42 C-313.44010498 -42.30333252 -312.75520996 -42.60666504 -312.04956055 -42.91918945 C-307.24896002 -45 -307.24896002 -45 -305 -45 C-304.67 -45.66 -304.34 -46.32 -304 -47 C-302.3828125 -47.640625 -302.3828125 -47.640625 -300.125 -48.25 C-296.78553672 -49.1841156 -293.48001227 -50.16022396 -290.19921875 -51.28125 C-200.2089762 -81.67496253 -99.18888669 -68.51173034 0 0 Z " fill="#EDBA99" transform="translate(704,119)"/>
<path d="M0 0 C26.23857593 22.25031239 37.22957057 56.56021282 40.36132812 89.89013672 C41.17159265 99.76957629 41.37940192 109.70954145 40.5390625 119.59375 C40.48210205 120.27397217 40.4251416 120.95419434 40.36645508 121.6550293 C40.19909783 123.49732898 40.00106957 125.33677033 39.80078125 127.17578125 C39.89064699 130.97379138 40.46979997 132.3813119 42.875 135.3125 C45.22533451 137.1411892 47.49012305 138.73732368 50 140.3125 C50.72340576 140.77454834 51.44681152 141.23659668 52.19213867 141.71264648 C63.95597628 149.04906317 76.48133298 155.12562488 88.875 161.3125 C88.875 161.9725 88.875 162.6325 88.875 163.3125 C88.23175781 163.62960937 87.58851563 163.94671875 86.92578125 164.2734375 C74.88294778 170.49241855 64.68780682 179.02881512 54.875 188.3125 C54.06546875 189.06917969 53.2559375 189.82585937 52.421875 190.60546875 C45.4871733 197.28938721 39.62315288 204.61359766 33.875 212.3125 C33.44687012 212.88516602 33.01874023 213.45783203 32.57763672 214.04785156 C26.26674806 222.55140373 20.50458657 231.35910896 15.02587891 240.41894531 C13.98557024 242.13057748 12.92186206 243.82793401 11.85546875 245.5234375 C-10.49525099 282.39529695 -21.87681732 328.17854065 -34.125 369.3125 C-36.125 368.3125 -36.125 368.3125 -36.80419922 366.49121094 C-37.01061035 365.68458008 -37.21702148 364.87794922 -37.4296875 364.046875 C-37.80033325 362.64683228 -37.80033325 362.64683228 -38.1784668 361.21850586 C-38.44957275 360.17702393 -38.72067871 359.13554199 -39 358.0625 C-52.51940276 308.19116943 -69.45919408 256.41509755 -100.125 214.3125 C-100.54249512 213.73661133 -100.95999023 213.16072266 -101.39013672 212.56738281 C-113.32927222 196.22862141 -127.240545 182.07590131 -144.0625 170.75 C-144.66489502 170.34434814 -145.26729004 169.93869629 -145.88793945 169.52075195 C-149.8199007 166.95874759 -153.76701374 165.05458135 -158.125 163.3125 C-158.125 162.6525 -158.125 161.9925 -158.125 161.3125 C-157.4952124 161.00022461 -156.8654248 160.68794922 -156.21655273 160.36621094 C-153.33079085 158.93380006 -150.4466386 157.49817634 -147.5625 156.0625 C-146.57185547 155.57136719 -145.58121094 155.08023438 -144.56054688 154.57421875 C-139.320628 151.9629635 -134.16974636 149.28415985 -129.125 146.3125 C-129.125 145.6525 -129.125 144.9925 -129.125 144.3125 C-128.06152344 144.18488281 -128.06152344 144.18488281 -126.9765625 144.0546875 C-123.49048488 143.14735223 -121.37246237 141.59778162 -118.5 139.4375 C-117.55898438 138.73882813 -116.61796875 138.04015625 -115.6484375 137.3203125 C-114.81570313 136.65773438 -113.98296875 135.99515625 -113.125 135.3125 C-112.58182129 134.9009668 -112.03864258 134.48943359 -111.47900391 134.06542969 C-109.47509047 131.47110974 -109.83479346 129.49925001 -109.9375 126.2578125 C-109.96312012 125.01765381 -109.98874023 123.77749512 -110.01513672 122.49975586 C-110.03380798 121.83845673 -110.05247925 121.17715759 -110.07171631 120.49581909 C-110.69216408 96.52826992 -108.67958078 73.17623125 -101.125 50.3125 C-100.53912109 48.50845703 -100.53912109 48.50845703 -99.94140625 46.66796875 C-92.22966106 25.02705058 -78.78480387 3.22881596 -57.796875 -7.47265625 C-37.83938385 -16.54689565 -17.36466305 -13.24055557 0 0 Z " fill="#EDBA99" transform="translate(546.125,383.6875)"/>
<path d="M0 0 C7.98692007 9.65753659 8.08010159 23.0896115 7 35 C5.18102294 46.6204072 -2.17536168 57.62807577 -11.5625 64.5 C-29.26922514 76.32191989 -48.68778661 79.84802942 -69.67578125 76.30859375 C-74.17470912 75.41108787 -78.58533962 74.24137133 -83 73 C-83.9295752 72.7431543 -84.85915039 72.48630859 -85.81689453 72.22167969 C-91.89437402 70.5361014 -97.95375716 68.79427605 -104 67 C-101.76589826 63.64884738 -101.58181459 63.6438788 -97.9375 62.8125 C-84.84734093 59.18578926 -72.54883779 51.98734655 -61 45 C-60.05906494 44.43176514 -60.05906494 44.43176514 -59.09912109 43.85205078 C-41.6697028 33.26603186 -24.29813451 21.9248775 -9.26953125 8.0859375 C-6.24706156 5.30797052 -3.13096258 2.65451175 0 0 Z " fill="#EDBB99" transform="translate(691,316)"/>
<path d="M0 0 C6.32866242 5.3656051 6.32866242 5.3656051 9.05859375 7.9453125 C32.57018599 30.03072497 71.9538603 58.3489144 104 65 C103 67 103 67 100.65844727 67.9296875 C99.63807373 68.24164063 98.6177002 68.55359375 97.56640625 68.875 C96.44169922 69.22046875 95.31699219 69.5659375 94.15820312 69.921875 C92.97162109 70.27765625 91.78503906 70.6334375 90.5625 71 C89.41072266 71.35578125 88.25894531 71.7115625 87.07226562 72.078125 C65.11197437 78.75465144 42.9388256 80.01042572 21.625 70.3125 C7.483363 62.68447026 -0.69805399 51.09523187 -5.62109375 36.109375 C-7.7750143 24.11847712 -6.1576335 10.55594314 0 0 Z " fill="#EEBB99" transform="translate(332,316)"/>
<path d="M0 0 C6.58902251 0.49025465 11.92210955 1.7700735 18 4.3125 C18.84667236 4.66006348 19.69334473 5.00762695 20.56567383 5.36572266 C42.56095097 14.56103942 63.38143709 25.46734967 83 39 C82.67 39.99 82.34 40.98 82 42 C81.45214844 41.59910156 80.90429688 41.19820312 80.33984375 40.78515625 C55.90490842 23.2635197 28.50991615 10.35956976 0 1 C0 0.67 0 0.34 0 0 Z " fill="#F3C19D" transform="translate(607,69)"/>
<path d="M0 0 C0.66 0 1.32 0 2 0 C0.70770809 2.74086097 -0.71563986 5.10066034 -2.5625 7.5 C-3.09359375 8.19996094 -3.6246875 8.89992188 -4.171875 9.62109375 C-5.46687228 11.30625046 -6.76976313 12.98535468 -8.078125 14.66015625 C-14.06053782 22.43101766 -19.07903363 30.53159001 -24 39 C-24.99706591 40.66842361 -25.99582372 42.33584623 -27 44 C-27.66 43.34 -28.32 42.68 -29 42 C-20.6349058 27.29879189 -11.70065095 12.35629087 0 0 Z " fill="#F3C19D" transform="translate(628,615)"/>
<path d="M0 0 C1.48241574 0.01006348 2.96483819 0.0191833 4.44726562 0.02734375 C8.02748674 0.04905925 11.60744808 0.08339754 15.1875 0.125 C15.1875 0.455 15.1875 0.785 15.1875 1.125 C14.35202637 1.1751123 13.51655273 1.22522461 12.65576172 1.27685547 C9.48326189 1.46991086 6.31113536 1.66815043 3.13916016 1.86962891 C1.1203555 1.99636788 -0.89880435 2.1174088 -2.91796875 2.23828125 C-10.62431653 2.73179121 -18.19313928 3.50834793 -25.81982422 4.72705078 C-28.53130889 5.08760879 -31.08239399 5.20036131 -33.8125 5.125 C-32.4925 4.795 -31.1725 4.465 -29.8125 4.125 C-29.8125 3.465 -29.8125 2.805 -29.8125 2.125 C-19.77813763 0.19577503 -10.16127374 -0.12174692 0 0 Z " fill="#F4C29E" transform="translate(495.8125,52.875)"/>
<path d="M0 0 C3.99112081 4.60513939 6.94456259 9.75483244 10 15 C5.65962225 14.50485982 2.91387625 11.68886128 -0.25 8.9375 C-1.08144531 8.22883789 -1.08144531 8.22883789 -1.9296875 7.50585938 C-3.291749 6.34341033 -4.64659956 5.17252145 -6 4 C-5.360625 3.87625 -4.72125 3.7525 -4.0625 3.625 C-3.0415625 3.315625 -3.0415625 3.315625 -2 3 C-1.67 2.34 -1.34 1.68 -1 1 C-0.67 0.67 -0.34 0.34 0 0 Z " fill="#E7B694" transform="translate(891,790)"/>
<path d="M0 0 C0.66 0.66 1.32 1.32 2 2 C-2.62 4.64 -7.24 7.28 -12 10 C-12.66 9.34 -13.32 8.68 -14 8 C-9.38 5.36 -4.76 2.72 0 0 Z M-14 9 C-15.31213059 12.93639176 -16.82801522 13.28653597 -20.4375 15.1875 C-21.42621094 15.71730469 -22.41492188 16.24710938 -23.43359375 16.79296875 C-26 18 -26 18 -28 18 C-28 17.34 -28 16.68 -28 16 C-25.4453125 14.2734375 -25.4453125 14.2734375 -22.125 12.375 C-21.03445313 11.74335937 -19.94390625 11.11171875 -18.8203125 10.4609375 C-16 9 -16 9 -14 9 Z " fill="#F3C19D" transform="translate(725,551)"/>
<path d="M0 0 C0.33 0 0.66 0 1 0 C1.10772918 14.37107285 1.11796696 28.66606646 0 43 C-0.33 43 -0.66 43 -1 43 C-1.19622046 38.87536584 -1.38050216 34.75028427 -1.5625 30.625 C-1.61857422 29.449375 -1.67464844 28.27375 -1.73242188 27.0625 C-1.78076172 25.94101562 -1.82910156 24.81953125 -1.87890625 23.6640625 C-1.9260376 22.62717285 -1.97316895 21.5902832 -2.02172852 20.52197266 C-2 18 -2 18 -1 16 C-0.7677354 13.28737884 -0.58063765 10.59226874 -0.4375 7.875 C-0.39431641 7.12089844 -0.35113281 6.36679687 -0.30664062 5.58984375 C-0.2005168 3.72678112 -0.09974999 1.86341476 0 0 Z " fill="#F4C19E" transform="translate(201,487)"/>
<path d="M0 0 C-2.59349026 1.7289935 -4.33832184 2.55616707 -7.23828125 3.47265625 C-8.05876953 3.73240234 -8.87925781 3.99214844 -9.72460938 4.25976562 C-10.57861328 4.52466797 -11.43261719 4.78957031 -12.3125 5.0625 C-13.15490234 5.33126953 -13.99730469 5.60003906 -14.86523438 5.87695312 C-19.22708097 7.24450628 -23.45257025 8.39911613 -28 9 C-24.5228487 4.70631449 -20.81474878 3.6592179 -15.6875 2.25 C-14.58631836 1.91935547 -14.58631836 1.91935547 -13.46289062 1.58203125 C-8.82624605 0.25727566 -4.81741301 -0.22909758 0 0 Z " fill="#F3C19D" transform="translate(436,63)"/>
<path d="M0 0 C8.42841353 0.62432693 15.93790202 3.29193468 23 8 C20.26218594 9.07188003 19.15916226 9.05757929 16.34375 8.0390625 C15.4053125 7.57242187 14.466875 7.10578125 13.5 6.625 C10.33970676 5.07089975 7.46079514 3.70195373 4 3 C4 2.34 4 1.68 4 1 C2.68 0.67 1.36 0.34 0 0 Z " fill="#F4C09D" transform="translate(528,325)"/>
<path d="M0 0 C7.82490023 -0.62599202 14.60937233 1.67485871 22 4 C22 4.66 22 5.32 22 6 C22.66 6.33 23.32 6.66 24 7 C15.8301386 5.56933303 7.94605012 3.35862583 0 1 C0 0.67 0 0.34 0 0 Z " fill="#F3C19E" transform="translate(580,61)"/>
<path d="M0 0 C0.99 0.33 1.98 0.66 3 1 C-6.73311085 9.82904719 -6.73311085 9.82904719 -10.5625 12.9375 C-13.04650436 14.76474264 -13.04650436 14.76474264 -14 17 C-14.66 17 -15.32 17 -16 17 C-13.150359 10.29496236 -6.03752159 3.90663162 0 0 Z " fill="#F4C09D" transform="translate(647,597)"/>
<path d="M0 0 C0.66 0.66 1.32 1.32 2 2 C0.40377344 3.03320481 -1.20229106 4.05122429 -2.8125 5.0625 C-4.15248047 5.91521484 -4.15248047 5.91521484 -5.51953125 6.78515625 C-8 8 -8 8 -11 7 C-7.54319097 4.23455278 -3.85658398 2.15078722 0 0 Z M-11 7 C-11.33 7.99 -11.66 8.98 -12 10 C-15.0625 11.1875 -15.0625 11.1875 -18 12 C-17 9 -17 9 -15.0625 7.8125 C-13 7 -13 7 -11 7 Z " fill="#F3C19D" transform="translate(413,532)"/>
<path d="M0 0 C3.88906912 0.62225106 7.07156939 1.81628081 10.625 3.5 C13.41646714 4.81543109 16.07052057 6.02350686 19 7 C19 7.66 19 8.32 19 9 C12.24575263 7.82068697 6.67064885 5.94920188 1 2 C0.67 1.34 0.34 0.68 0 0 Z " fill="#F2C19E" transform="translate(254,136)"/>
<path d="M0 0 C2.64 0 5.28 0 8 0 C4.78379515 2.14413657 1.46863154 3.66081546 -2.0625 5.1875 C-2.69994141 5.47302734 -3.33738281 5.75855469 -3.99414062 6.05273438 C-5.63709898 6.76427903 -7.31706973 7.38897327 -9 8 C-9.66 7.67 -10.32 7.34 -11 7 C-7.34666857 4.36620292 -4.51478398 2.53115106 0 2 C0 1.34 0 0.68 0 0 Z " fill="#F3C19D" transform="translate(399,72)"/>
<path d="M0 0 C2.87387155 2.54227098 5.10764428 5.38030904 7.3125 8.5 C7.84488281 9.2528125 8.37726563 10.005625 8.92578125 10.78125 C10 13 10 13 9 17 C5.7 12.05 2.4 7.1 -1 2 C-0.67 1.34 -0.34 0.68 0 0 Z " fill="#F3C19D" transform="translate(406,630)"/>
<path d="M0 0 C2.475 0.99 2.475 0.99 5 2 C4.21625 2.763125 3.4325 3.52625 2.625 4.3125 C-0.07257717 6.90891805 -0.07257717 6.90891805 -2 10 C-2.66 10 -3.32 10 -4 10 C-3.29445932 6.33118845 -1.72264494 3.29549466 0 0 Z " fill="#E1B28F" transform="translate(127,797)"/>
<path d="M0 0 C-2.92286119 2.92286119 -6.03763023 2.86772058 -10 3 C-14.3468435 2.79135151 -18.66975808 2.42906361 -23 2 C-23 1.67 -23 1.34 -23 1 C-20.47932687 0.83054298 -17.95850616 0.66436516 -15.4375 0.5 C-14.73302734 0.45230469 -14.02855469 0.40460938 -13.30273438 0.35546875 C-8.85739865 0.0686729 -4.45455341 -0.04682842 0 0 Z " fill="#F6C19D" transform="translate(653,390)"/>
<path d="M0 0 C0.99 0.33 1.98 0.66 3 1 C-3.435 6.94 -3.435 6.94 -10 13 C-10.33 12.01 -10.66 11.02 -11 10 C-10.45730469 9.52949219 -9.91460938 9.05898438 -9.35546875 8.57421875 C-8.64003906 7.95160156 -7.92460938 7.32898438 -7.1875 6.6875 C-6.47980469 6.07261719 -5.77210938 5.45773437 -5.04296875 4.82421875 C-3.29863261 3.26665665 -1.63221959 1.67341125 0 0 Z " fill="#F4C19E" transform="translate(723,405)"/>
<path d="M0 0 C1.916588 -0.02712153 3.8332873 -0.04645097 5.75 -0.0625 C7.35101562 -0.07990234 7.35101562 -0.07990234 8.984375 -0.09765625 C11.53368501 -0.01510087 13.57933591 0.25382442 16 1 C16 1.66 16 2.32 16 3 C14.27054347 2.85764543 12.54144346 2.71095618 10.8125 2.5625 C9.36810547 2.44068359 9.36810547 2.44068359 7.89453125 2.31640625 C5.21350398 2.02333849 2.6337014 1.57296246 0 1 C0 0.67 0 0.34 0 0 Z " fill="#F5C29E" transform="translate(553,56)"/>
<path d="M0 0 C2.22825644 2.22825644 2.69239369 3.65761628 3.625 6.625 C3.88539063 7.44226563 4.14578125 8.25953125 4.4140625 9.1015625 C4.60742188 9.72804688 4.80078125 10.35453125 5 11 C4.34 11.66 3.68 12.32 3 13 C2.30093058 11.40084119 1.61610532 9.79544955 0.9375 8.1875 C0.55464844 7.29417969 0.17179687 6.40085937 -0.22265625 5.48046875 C-1 3 -1 3 0 0 Z " fill="#F4C09D" transform="translate(446,706)"/>
<path d="M0 0 C0.33 0 0.66 0 1 0 C2.3792223 6.30338787 3.41117949 11.6496923 2 18 C1.67 18 1.34 18 1 18 C-0.0712828 11.97403427 -0.09945415 6.11090483 0 0 Z " fill="#F4C09D" transform="translate(819,341)"/>
<path d="M0 0 C1 2 1 2 0.22265625 4.3828125 C-0.16019531 5.28773437 -0.54304687 6.19265625 -0.9375 7.125 C-1.31777344 8.03507812 -1.69804688 8.94515625 -2.08984375 9.8828125 C-2.39019531 10.58148438 -2.69054687 11.28015625 -3 12 C-3.66 11.01 -4.32 10.02 -5 9 C-4.34 9 -3.68 9 -3 9 C-3 8.34 -3 7.68 -3 7 C-3.66 6.67 -4.32 6.34 -5 6 C-3.35 4.02 -1.7 2.04 0 0 Z " fill="#D8AB8A" transform="translate(810,96)"/>
<path d="M0 0 C0.33 0.99 0.66 1.98 1 3 C-0.43359375 5.04296875 -0.43359375 5.04296875 -2.4375 7.1875 C-3.09621094 7.90292969 -3.75492188 8.61835938 -4.43359375 9.35546875 C-4.95050781 9.89816406 -5.46742188 10.44085938 -6 11 C-6.66 10.67 -7.32 10.34 -8 10 C-5.36 6.7 -2.72 3.4 0 0 Z " fill="#F4C19C" transform="translate(762,181)"/>
<path d="M0 0 C2.12038635 2.61514317 4.13091744 5.19637616 6 8 C1.75177626 7.52797514 -0.19989709 5.03344482 -3 2 C-2.01 2 -1.02 2 0 2 C0 1.34 0 0.68 0 0 Z " fill="#DAAF8F" transform="translate(895,797)"/>
<path d="M0 0 C9.41002278 0.96355353 9.41002278 0.96355353 14 2 C14 2.33 14 2.66 14 3 C9.31967018 4.11436424 6.42589268 3.91118093 2 2 C1.34 1.34 0.68 0.68 0 0 Z " fill="#F4C19D" transform="translate(612,388)"/>
<path d="M0 0 C2.29264797 2.29264797 4.19719183 4.33871175 6 7 C6 7.66 6 8.32 6 9 C4.68 9 3.36 9 2 9 C1.34 6.03 0.68 3.06 0 0 Z " fill="#DFB18F" transform="translate(213,95)"/>
<path d="M0 0 C2.31 0 4.62 0 7 0 C7 0.66 7 1.32 7 2 C9.475 2.99 9.475 2.99 12 4 C8.35839192 5.21386936 7.66834531 4.6674695 4.3125 3.0625 C3.10013672 2.49208984 3.10013672 2.49208984 1.86328125 1.91015625 C1.24839844 1.60980469 0.63351562 1.30945313 0 1 C0 0.67 0 0.34 0 0 Z " fill="#F4C29F" transform="translate(337,432)"/>
<path d="M0 0 C2.3129482 2.3129482 2.49580975 3.47904875 3.125 6.625 C3.29257812 7.44226563 3.46015625 8.25953125 3.6328125 9.1015625 C3.81457031 10.04128906 3.81457031 10.04128906 4 11 C3.67 10.34 3.34 9.68 3 9 C2.34 9 1.68 9 1 9 C0.67 6.03 0.34 3.06 0 0 Z " fill="#F5C09D" transform="translate(503,721)"/>
<path d="M0 0 C0.66 0.33 1.32 0.66 2 1 C1.67 3.97 1.34 6.94 1 10 C0.34 9.34 -0.32 8.68 -1 8 C-0.96712417 5.27130593 -0.43602229 2.7033382 0 0 Z " fill="#F4C19F" transform="translate(440,452)"/>
<path d="M0 0 C0.66 0 1.32 0 2 0 C1.25 7.75 1.25 7.75 -1 10 C-0.67 6.7 -0.34 3.4 0 0 Z " fill="#F3C19E" transform="translate(745,364)"/>
<path d="M0 0 C1.125 1.75 1.125 1.75 2 4 C1.125 6.25 1.125 6.25 0 8 C-0.33 6.68 -0.66 5.36 -1 4 C-1.99 4 -2.98 4 -4 4 C-2.68 2.68 -1.36 1.36 0 0 Z " fill="#E6B593" transform="translate(802,106)"/>
<path d="M0 0 C5.445 1.485 5.445 1.485 11 3 C11 3.33 11 3.66 11 4 C7.75 4.25 7.75 4.25 4 4 C2.68 2.68 1.36 1.36 0 0 Z " fill="#F5C19E" transform="translate(451,338)"/>
<path d="M0 0 C0.33 0.66 0.66 1.32 1 2 C0.06553465 4.03144641 -0.93224776 6.03533587 -2 8 C-2.33 8 -2.66 8 -3 8 C-3.1875 5.125 -3.1875 5.125 -3 2 C-2.01 1.34 -1.02 0.68 0 0 Z " fill="#F3C09E" transform="translate(579,702)"/>
<path d="M0 0 C0.33 0.99 0.66 1.98 1 3 C0.01 2.67 -0.98 2.34 -2 2 C-1.34 1.34 -0.68 0.68 0 0 Z " fill="#EEBC9A" transform="translate(242,739)"/>
<path d="M0 0 C0.99 1.485 0.99 1.485 2 3 C1.34 3 0.68 3 0 3 C0 2.01 0 1.02 0 0 Z " fill="#ECBB99" transform="translate(416,820)"/>
<path d="M0 0 C0.66 0 1.32 0 2 0 C1.67 0.99 1.34 1.98 1 3 C0.67 2.01 0.34 1.02 0 0 Z " fill="#F0BE9C" transform="translate(793,725)"/>
<path d="M0 0 C0 3 0 3 0 3 Z " fill="#EEBD9B" transform="translate(233,725)"/>
<path d="M0 0 C0.66 0.33 1.32 0.66 2 1 C1.01 1 0.02 1 -1 1 C-0.67 0.67 -0.34 0.34 0 0 Z " fill="#F0BF9C" transform="translate(482,332)"/>
<path d="M0 0 C4 1 4 1 4 1 Z " fill="#F2C09B" transform="translate(515,326)"/>
<path d="M0 0 C4 1 4 1 4 1 Z " fill="#F1BE9C" transform="translate(507,326)"/>
<path d="" fill="#EDBC9A" transform="translate(0,0)"/>
<path d="" fill="#F0BE9C" transform="translate(0,0)"/>
<path d="M0 0 C3 1 3 1 3 1 Z " fill="#F2C19D" transform="translate(640,440)"/>
<path d="M0 0 C3 1 3 1 3 1 Z " fill="#F1BE9A" transform="translate(659,391)"/>
<path d="M0 0 C3 1 3 1 3 1 Z " fill="#F0BF9D" transform="translate(507,369)"/>
<path d="" fill="#EFBF9C" transform="translate(0,0)"/>
<path d="M0 0 C0.66 0 1.32 0 2 0 C1.67 0.66 1.34 1.32 1 2 C0.67 1.34 0.34 0.68 0 0 Z " fill="#E4B594" transform="translate(234,147)"/>
<path d="" fill="#EAB999" transform="translate(0,0)"/>
<path d="M0 0 C2 1 2 1 2 1 Z " fill="#EEBD9A" transform="translate(392,789)"/>
<path d="" fill="#F0BD9B" transform="translate(0,0)"/>
<path d="" fill="#F0BE9B" transform="translate(0,0)"/>
<path d="M0 0 C2 1 2 1 2 1 Z " fill="#EDBB99" transform="translate(250,755)"/>
<path d="" fill="#EBBB99" transform="translate(0,0)"/>
<path d="" fill="#EFBE9C" transform="translate(0,0)"/>
<path d="" fill="#E8B796" transform="translate(0,0)"/>
<path d="" fill="#EFBF9C" transform="translate(0,0)"/>
<path d="M0 0 C2 1 2 1 2 1 Z " fill="#EFBF9C" transform="translate(793,723)"/>
<path d="" fill="#F1BE9C" transform="translate(0,0)"/>
<path d="" fill="#F1BF9D" transform="translate(0,0)"/>
<path d="" fill="#EBB999" transform="translate(0,0)"/>
<path d="" fill="#EFC09C" transform="translate(0,0)"/>
<path d="" fill="#F0C09D" transform="translate(0,0)"/>
<path d="" fill="#EABA97" transform="translate(0,0)"/>
<path d="" fill="#F0BF9D" transform="translate(0,0)"/>
<path d="M0 0 C2 1 2 1 2 1 Z " fill="#EFC09D" transform="translate(464,631)"/>
<path d="" fill="#EABB98" transform="translate(0,0)"/>
<path d="" fill="#F2C09C" transform="translate(0,0)"/>
<path d="M0 0 C2 1 2 1 2 1 Z " fill="#F0C09D" transform="translate(627,551)"/>
<path d="M0 0 C2 1 2 1 2 1 Z " fill="#F1C09D" transform="translate(388,548)"/>
<path d="" fill="#F1C19D" transform="translate(0,0)"/>
<path d="" fill="#EBBB9A" transform="translate(0,0)"/>
<path d="M0 0 C2 1 2 1 2 1 Z " fill="#F0BF9D" transform="translate(640,495)"/>
<path d="" fill="#F1BF9C" transform="translate(0,0)"/>
<path d="M0 0 C2 1 2 1 2 1 Z " fill="#F1BE9A" transform="translate(637,440)"/>
<path d="M0 0 C2 1 2 1 2 1 Z " fill="#EFC09B" transform="translate(385,440)"/>
<path d="M0 0 C2 1 2 1 2 1 Z " fill="#F0C09D" transform="translate(675,433)"/>
<path d="" fill="#F0BC99" transform="translate(0,0)"/>
<path d="" fill="#EEBB9A" transform="translate(0,0)"/>
<path d="" fill="#F0BF9E" transform="translate(0,0)"/>
<path d="M0 0 C2 1 2 1 2 1 Z " fill="#F1BE9A" transform="translate(641,352)"/>
<path d="" fill="#F2C09D" transform="translate(0,0)"/>
<path d="" fill="#EFBE9A" transform="translate(0,0)"/>
<path d="M0 0 C2 1 2 1 2 1 Z " fill="#F3BF9D" transform="translate(537,331)"/>
<path d="M0 0 C2 1 2 1 2 1 Z " fill="#F2BF9D" transform="translate(523,327)"/>
<path d="M0 0 C2 1 2 1 2 1 Z " fill="#F2C09D" transform="translate(500,327)"/>
<path d="M0 0 C2 1 2 1 2 1 Z " fill="#F2C19D" transform="translate(512,326)"/>
<path d="M0 0 C2 1 2 1 2 1 Z " fill="#F3C19D" transform="translate(504,326)"/>
<path d="" fill="#F0BD9B" transform="translate(0,0)"/>
<path d="M0 0 C2 1 2 1 2 1 Z " fill="#F1C09F" transform="translate(408,317)"/>
<path d="" fill="#EEBD9A" transform="translate(0,0)"/>
<path d="" fill="#EAB897" transform="translate(0,0)"/>
<path d="M0 0 C2 1 2 1 2 1 Z " fill="#F0BE9B" transform="translate(330,315)"/>
<path d="" fill="#F0C09F" transform="translate(0,0)"/>
<path d="M0 0 C2 1 2 1 2 1 Z " fill="#EFBE9B" transform="translate(748,257)"/>
<path d="" fill="#F0BF9C" transform="translate(0,0)"/>
<path d="" fill="#F1BE9A" transform="translate(0,0)"/>
<path d="" fill="#EFBF9B" transform="translate(0,0)"/>
<path d="" fill="#EDBC9B" transform="translate(0,0)"/>
<path d="M0 0 C2 1 2 1 2 1 Z " fill="#EFBD99" transform="translate(739,145)"/>
<path d="" fill="#EDBD99" transform="translate(0,0)"/>
<path d="M0 0 C2 1 2 1 2 1 Z " fill="#E9BA96" transform="translate(336,104)"/>
<path d="" fill="#E4B392" transform="translate(0,0)"/>
<path d="" fill="#E5B495" transform="translate(0,0)"/>
<path d="" fill="#E5B596" transform="translate(0,0)"/>
<path d="" fill="#E6B593" transform="translate(0,0)"/>
<path d="" fill="#786354" transform="translate(0,0)"/>
<path d="" fill="#E7B896" transform="translate(0,0)"/>
<path d="" fill="#E7B797" transform="translate(0,0)"/>
<path d="" fill="#E8B997" transform="translate(0,0)"/>
<path d="" fill="#E5B595" transform="translate(0,0)"/>
<path d="" fill="#E8B997" transform="translate(0,0)"/>
<path d="" fill="#F1BE9D" transform="translate(0,0)"/>
<path d="" fill="#E9BB98" transform="translate(0,0)"/>
<path d="" fill="#F1BE9C" transform="translate(0,0)"/>
<path d="" fill="#EAB996" transform="translate(0,0)"/>
<path d="" fill="#F0BE9C" transform="translate(0,0)"/>
<path d="" fill="#EBBA97" transform="translate(0,0)"/>
<path d="" fill="#EBBA97" transform="translate(0,0)"/>
<path d="" fill="#EBB997" transform="translate(0,0)"/>
<path d="" fill="#EFBD9A" transform="translate(0,0)"/>
<path d="" fill="#EABB98" transform="translate(0,0)"/>
<path d="" fill="#EFBF9C" transform="translate(0,0)"/>
<path d="" fill="#EEBC9B" transform="translate(0,0)"/>
<path d="" fill="#EABB98" transform="translate(0,0)"/>
<path d="" fill="#EABB97" transform="translate(0,0)"/>
<path d="" fill="#EBBA98" transform="translate(0,0)"/>
<path d="" fill="#EEBD9E" transform="translate(0,0)"/>
<path d="" fill="#EFBF9D" transform="translate(0,0)"/>
<path d="" fill="#EFBA99" transform="translate(0,0)"/>
<path d="" fill="#E5B594" transform="translate(0,0)"/>
<path d="" fill="#E8B695" transform="translate(0,0)"/>
<path d="" fill="#ECBA97" transform="translate(0,0)"/>
<path d="" fill="#E8B795" transform="translate(0,0)"/>
<path d="" fill="#E8B796" transform="translate(0,0)"/>
<path d="" fill="#EAB995" transform="translate(0,0)"/>
<path d="" fill="#E6B594" transform="translate(0,0)"/>
<path d="" fill="#F0BE9D" transform="translate(0,0)"/>
<path d="" fill="#EEBB9A" transform="translate(0,0)"/>
<path d="" fill="#ECBA98" transform="translate(0,0)"/>
<path d="" fill="#EBBA98" transform="translate(0,0)"/>
<path d="" fill="#EFBB98" transform="translate(0,0)"/>
<path d="" fill="#EDBC9A" transform="translate(0,0)"/>
<path d="" fill="#B39178" transform="translate(0,0)"/>
<path d="" fill="#B79278" transform="translate(0,0)"/>
<path d="" fill="#BB9479" transform="translate(0,0)"/>
<path d="" fill="#E9B696" transform="translate(0,0)"/>
<path d="" fill="#BF987C" transform="translate(0,0)"/>
<path d="" fill="#EEBB9A" transform="translate(0,0)"/>
<path d="" fill="#E6B694" transform="translate(0,0)"/>
<path d="" fill="#E9B997" transform="translate(0,0)"/>
<path d="" fill="#F1BC9E" transform="translate(0,0)"/>
<path d="" fill="#CCA182" transform="translate(0,0)"/>
<path d="" fill="#EEBD9C" transform="translate(0,0)"/>
<path d="" fill="#DEAE8D" transform="translate(0,0)"/>
<path d="" fill="#DBAE8E" transform="translate(0,0)"/>
<path d="" fill="#DDB08F" transform="translate(0,0)"/>
<path d="" fill="#F0BC9C" transform="translate(0,0)"/>
<path d="" fill="#E1B08F" transform="translate(0,0)"/>
<path d="" fill="#EEBE9D" transform="translate(0,0)"/>
<path d="" fill="#EABA99" transform="translate(0,0)"/>
<path d="" fill="#E2B393" transform="translate(0,0)"/>
<path d="" fill="#EABB98" transform="translate(0,0)"/>
<path d="" fill="#E4B292" transform="translate(0,0)"/>
<path d="" fill="#EABB98" transform="translate(0,0)"/>
<path d="" fill="#F0BC9A" transform="translate(0,0)"/>
<path d="" fill="#E6B693" transform="translate(0,0)"/>
<path d="" fill="#EEBD9E" transform="translate(0,0)"/>
<path d="" fill="#F3C09D" transform="translate(0,0)"/>
<path d="" fill="#F1C19B" transform="translate(0,0)"/>
<path d="" fill="#ECBC9B" transform="translate(0,0)"/>
<path d="" fill="#ECBA9A" transform="translate(0,0)"/>
<path d="" fill="#ECBA99" transform="translate(0,0)"/>
<path d="" fill="#EBBC97" transform="translate(0,0)"/>
<path d="" fill="#EDBA97" transform="translate(0,0)"/>
<path d="" fill="#EEBE99" transform="translate(0,0)"/>
<path d="" fill="#F0C09B" transform="translate(0,0)"/>
<path d="" fill="#EABB99" transform="translate(0,0)"/>
<path d="" fill="#EBBA98" transform="translate(0,0)"/>
<path d="" fill="#EEBB9A" transform="translate(0,0)"/>
<path d="" fill="#E4B596" transform="translate(0,0)"/>
<path d="" fill="#EFBC9B" transform="translate(0,0)"/>
<path d="" fill="#F0BF9B" transform="translate(0,0)"/>
<path d="" fill="#EBBC98" transform="translate(0,0)"/>
<path d="" fill="#F2BE9C" transform="translate(0,0)"/>
<path d="" fill="#EDBE9A" transform="translate(0,0)"/>
<path d="" fill="#E6B693" transform="translate(0,0)"/>
<path d="" fill="#EDBD9A" transform="translate(0,0)"/>
<path d="" fill="#E7B997" transform="translate(0,0)"/>
<path d="" fill="#E8B797" transform="translate(0,0)"/>
<path d="" fill="#EEBD9A" transform="translate(0,0)"/>
<path d="" fill="#E7B897" transform="translate(0,0)"/>
<path d="" fill="#EFBD9A" transform="translate(0,0)"/>
<path d="" fill="#F1C09E" transform="translate(0,0)"/>
<path d="" fill="#EDBC9B" transform="translate(0,0)"/>
<path d="" fill="#E8B897" transform="translate(0,0)"/>
<path d="" fill="#EFBD99" transform="translate(0,0)"/>
<path d="" fill="#F1BE9A" transform="translate(0,0)"/>
<path d="" fill="#EFBD9B" transform="translate(0,0)"/>
<path d="" fill="#F1BD9B" transform="translate(0,0)"/>
<path d="" fill="#F2C09C" transform="translate(0,0)"/>
<path d="" fill="#F2BE9C" transform="translate(0,0)"/>
<path d="" fill="#EFBD9C" transform="translate(0,0)"/>
<path d="" fill="#F1C09D" transform="translate(0,0)"/>
<path d="" fill="#E8B696" transform="translate(0,0)"/>
<path d="" fill="#F0BF9C" transform="translate(0,0)"/>
<path d="" fill="#F0BF9D" transform="translate(0,0)"/>
<path d="" fill="#EABA98" transform="translate(0,0)"/>
<path d="" fill="#EFBE9D" transform="translate(0,0)"/>
<path d="" fill="#EFBF9C" transform="translate(0,0)"/>
<path d="" fill="#EFBE9C" transform="translate(0,0)"/>
<path d="" fill="#F2BE9B" transform="translate(0,0)"/>
<path d="" fill="#F2BD9B" transform="translate(0,0)"/>
<path d="" fill="#EFBD9C" transform="translate(0,0)"/>
<path d="" fill="#F1BF9D" transform="translate(0,0)"/>
<path d="" fill="#F1C19F" transform="translate(0,0)"/>
<path d="" fill="#EEBF9D" transform="translate(0,0)"/>
<path d="" fill="#F0BF9D" transform="translate(0,0)"/>
<path d="" fill="#F4C19D" transform="translate(0,0)"/>
<path d="" fill="#F1C09D" transform="translate(0,0)"/>
<path d="" fill="#EAB897" transform="translate(0,0)"/>
<path d="" fill="#F2BE9D" transform="translate(0,0)"/>
<path d="" fill="#F0BF9A" transform="translate(0,0)"/>
<path d="" fill="#EFBE9D" transform="translate(0,0)"/>
<path d="" fill="#F1BF9E" transform="translate(0,0)"/>
<path d="" fill="#F2BE9C" transform="translate(0,0)"/>
<path d="" fill="#EBBA98" transform="translate(0,0)"/>
<path d="" fill="#EFC09E" transform="translate(0,0)"/>
<path d="" fill="#F0C09E" transform="translate(0,0)"/>
<path d="" fill="#F1C09C" transform="translate(0,0)"/>
<path d="" fill="#F1BF9C" transform="translate(0,0)"/>
<path d="" fill="#F2BF9B" transform="translate(0,0)"/>
<path d="" fill="#F1BF9D" transform="translate(0,0)"/>
<path d="" fill="#F1BF9C" transform="translate(0,0)"/>
<path d="" fill="#F0BF9E" transform="translate(0,0)"/>
<path d="" fill="#F1BF9D" transform="translate(0,0)"/>
<path d="" fill="#EFBC9B" transform="translate(0,0)"/>
<path d="" fill="#F0C09D" transform="translate(0,0)"/>
<path d="" fill="#F2BE9D" transform="translate(0,0)"/>
<path d="" fill="#F1BE9C" transform="translate(0,0)"/>
<path d="" fill="#EFBC99" transform="translate(0,0)"/>
<path d="" fill="#EBB897" transform="translate(0,0)"/>
<path d="" fill="#EEBF9F" transform="translate(0,0)"/>
<path d="" fill="#F0BF9E" transform="translate(0,0)"/>
<path d="" fill="#EFBC9D" transform="translate(0,0)"/>
<path d="" fill="#F0BD9B" transform="translate(0,0)"/>
<path d="" fill="#EFC09D" transform="translate(0,0)"/>
<path d="" fill="#EEBE9B" transform="translate(0,0)"/>
<path d="" fill="#EFC29D" transform="translate(0,0)"/>
<path d="" fill="#F0BF9D" transform="translate(0,0)"/>
<path d="" fill="#F1C09D" transform="translate(0,0)"/>
<path d="" fill="#F0C09C" transform="translate(0,0)"/>
<path d="" fill="#F1BE9C" transform="translate(0,0)"/>
<path d="" fill="#F0C19D" transform="translate(0,0)"/>
<path d="" fill="#ECBA99" transform="translate(0,0)"/>
<path d="" fill="#EDBA98" transform="translate(0,0)"/>
<path d="" fill="#F1BF9C" transform="translate(0,0)"/>
<path d="" fill="#EEBA98" transform="translate(0,0)"/>
<path d="" fill="#F2C19C" transform="translate(0,0)"/>
<path d="" fill="#F1C09D" transform="translate(0,0)"/>
<path d="" fill="#F1C19D" transform="translate(0,0)"/>
<path d="" fill="#F1BD98" transform="translate(0,0)"/>
<path d="" fill="#F0BF9C" transform="translate(0,0)"/>
<path d="" fill="#F0BF9C" transform="translate(0,0)"/>
<path d="" fill="#F3C19D" transform="translate(0,0)"/>
<path d="" fill="#F0C09D" transform="translate(0,0)"/>
<path d="" fill="#ECBC99" transform="translate(0,0)"/>
<path d="" fill="#F0C09C" transform="translate(0,0)"/>
<path d="" fill="#F2BE9B" transform="translate(0,0)"/>
<path d="" fill="#F2C19C" transform="translate(0,0)"/>
<path d="" fill="#EDBB9A" transform="translate(0,0)"/>
<path d="" fill="#F0C09F" transform="translate(0,0)"/>
<path d="" fill="#ECBC99" transform="translate(0,0)"/>
<path d="" fill="#F1BF9C" transform="translate(0,0)"/>
<path d="" fill="#ECBC98" transform="translate(0,0)"/>
<path d="" fill="#EFBE9D" transform="translate(0,0)"/>
<path d="" fill="#EEBE9C" transform="translate(0,0)"/>
<path d="" fill="#F1C19E" transform="translate(0,0)"/>
<path d="" fill="#EFBE9A" transform="translate(0,0)"/>
<path d="" fill="#F1BF9E" transform="translate(0,0)"/>
<path d="" fill="#F0BF9D" transform="translate(0,0)"/>
<path d="" fill="#F2C09F" transform="translate(0,0)"/>
<path d="" fill="#F1C09E" transform="translate(0,0)"/>
<path d="" fill="#F3BF9E" transform="translate(0,0)"/>
<path d="" fill="#EEBB9A" transform="translate(0,0)"/>
<path d="" fill="#EDBC9A" transform="translate(0,0)"/>
<path d="" fill="#F1BF9B" transform="translate(0,0)"/>
<path d="" fill="#ECBC99" transform="translate(0,0)"/>
<path d="" fill="#F2BE9C" transform="translate(0,0)"/>
<path d="" fill="#F3BE9B" transform="translate(0,0)"/>
<path d="" fill="#F0C09C" transform="translate(0,0)"/>
<path d="" fill="#F0BE9A" transform="translate(0,0)"/>
<path d="" fill="#EEBF9C" transform="translate(0,0)"/>
<path d="" fill="#ECBC99" transform="translate(0,0)"/>
<path d="" fill="#F1BF9D" transform="translate(0,0)"/>
<path d="" fill="#F2C19E" transform="translate(0,0)"/>
<path d="" fill="#ECBB99" transform="translate(0,0)"/>
<path d="" fill="#F0BF9A" transform="translate(0,0)"/>
<path d="" fill="#F0C09C" transform="translate(0,0)"/>
<path d="" fill="#EBBB99" transform="translate(0,0)"/>
<path d="" fill="#F0C09D" transform="translate(0,0)"/>
<path d="" fill="#EFBF9C" transform="translate(0,0)"/>
<path d="" fill="#F0BE9C" transform="translate(0,0)"/>
<path d="" fill="#EFBE9B" transform="translate(0,0)"/>
<path d="" fill="#F1BF9C" transform="translate(0,0)"/>
<path d="" fill="#F1BF9D" transform="translate(0,0)"/>
<path d="" fill="#F2BF9A" transform="translate(0,0)"/>
<path d="" fill="#F2BF9D" transform="translate(0,0)"/>
<path d="" fill="#EFBF9C" transform="translate(0,0)"/>
<path d="" fill="#F1BE9D" transform="translate(0,0)"/>
<path d="" fill="#EFBF9D" transform="translate(0,0)"/>
<path d="" fill="#F0BF9D" transform="translate(0,0)"/>
<path d="" fill="#F0BE9D" transform="translate(0,0)"/>
<path d="" fill="#F0BF9D" transform="translate(0,0)"/>
<path d="" fill="#F1BE9D" transform="translate(0,0)"/>
<path d="" fill="#F0BF9C" transform="translate(0,0)"/>
<path d="" fill="#F1BE9E" transform="translate(0,0)"/>
<path d="" fill="#EFBE9D" transform="translate(0,0)"/>
<path d="" fill="#F0C0A0" transform="translate(0,0)"/>
<path d="" fill="#F0BD9A" transform="translate(0,0)"/>
<path d="" fill="#EDBF9C" transform="translate(0,0)"/>
<path d="" fill="#F0BE9C" transform="translate(0,0)"/>
<path d="" fill="#F0C19D" transform="translate(0,0)"/>
<path d="" fill="#F0BE9E" transform="translate(0,0)"/>
<path d="" fill="#F0BF9D" transform="translate(0,0)"/>
<path d="" fill="#F0BE9B" transform="translate(0,0)"/>
<path d="" fill="#EABA99" transform="translate(0,0)"/>
<path d="" fill="#F0BF9C" transform="translate(0,0)"/>
<path d="" fill="#F0C0A1" transform="translate(0,0)"/>
<path d="" fill="#F2BF9C" transform="translate(0,0)"/>
<path d="" fill="#F2C19D" transform="translate(0,0)"/>
<path d="" fill="#F1C09A" transform="translate(0,0)"/>
<path d="" fill="#F1C09E" transform="translate(0,0)"/>
<path d="" fill="#EEBE9B" transform="translate(0,0)"/>
<path d="" fill="#F2C19D" transform="translate(0,0)"/>
<path d="" fill="#EFBE9A" transform="translate(0,0)"/>
<path d="" fill="#EFBE9C" transform="translate(0,0)"/>
<path d="" fill="#F0BE9D" transform="translate(0,0)"/>
<path d="" fill="#F1BE9D" transform="translate(0,0)"/>
<path d="" fill="#F2BF9A" transform="translate(0,0)"/>
<path d="" fill="#F2BF9C" transform="translate(0,0)"/>
<path d="" fill="#F1C09D" transform="translate(0,0)"/>
<path d="" fill="#F1BE9C" transform="translate(0,0)"/>
<path d="" fill="#EEBF9B" transform="translate(0,0)"/>
<path d="" fill="#F0BF9C" transform="translate(0,0)"/>
<path d="" fill="#EEBD9C" transform="translate(0,0)"/>
<path d="" fill="#F1C09D" transform="translate(0,0)"/>
<path d="" fill="#F0C09D" transform="translate(0,0)"/>
<path d="" fill="#F0BF9D" transform="translate(0,0)"/>
<path d="" fill="#F2C19D" transform="translate(0,0)"/>
<path d="" fill="#F1BF9F" transform="translate(0,0)"/>
<path d="" fill="#F1C09B" transform="translate(0,0)"/>
<path d="" fill="#EFBE9A" transform="translate(0,0)"/>
<path d="" fill="#F0BE9B" transform="translate(0,0)"/>
<path d="" fill="#F1BF9D" transform="translate(0,0)"/>
<path d="" fill="#F1C09D" transform="translate(0,0)"/>
<path d="" fill="#F1BF9D" transform="translate(0,0)"/>
<path d="" fill="#F0BE9B" transform="translate(0,0)"/>
<path d="" fill="#EFBF9C" transform="translate(0,0)"/>
<path d="" fill="#F0BF9B" transform="translate(0,0)"/>
<path d="" fill="#F1C29E" transform="translate(0,0)"/>
<path d="" fill="#F2BF9D" transform="translate(0,0)"/>
<path d="" fill="#EFBE9A" transform="translate(0,0)"/>
<path d="" fill="#F0BF9D" transform="translate(0,0)"/>
<path d="" fill="#EFBC9C" transform="translate(0,0)"/>
<path d="" fill="#F2C09B" transform="translate(0,0)"/>
<path d="" fill="#F0BF9D" transform="translate(0,0)"/>
<path d="" fill="#EFBE9D" transform="translate(0,0)"/>
<path d="" fill="#F0BD9B" transform="translate(0,0)"/>
<path d="" fill="#F0BF9D" transform="translate(0,0)"/>
<path d="" fill="#F1BF9A" transform="translate(0,0)"/>
<path d="" fill="#F0BF9C" transform="translate(0,0)"/>
<path d="" fill="#F2C09B" transform="translate(0,0)"/>
<path d="" fill="#F0BF9C" transform="translate(0,0)"/>
<path d="" fill="#F0BE9C" transform="translate(0,0)"/>
<path d="" fill="#EFC09C" transform="translate(0,0)"/>
<path d="" fill="#EFBE9D" transform="translate(0,0)"/>
<path d="" fill="#E8B795" transform="translate(0,0)"/>
<path d="" fill="#EFC09C" transform="translate(0,0)"/>
<path d="" fill="#F2BF9C" transform="translate(0,0)"/>
<path d="" fill="#F2C09D" transform="translate(0,0)"/>
<path d="" fill="#F3BE9E" transform="translate(0,0)"/>
<path d="" fill="#F1BE9B" transform="translate(0,0)"/>
<path d="" fill="#EABA98" transform="translate(0,0)"/>
<path d="" fill="#F2C09B" transform="translate(0,0)"/>
<path d="" fill="#F3C09D" transform="translate(0,0)"/>
<path d="" fill="#EFBE9B" transform="translate(0,0)"/>
<path d="" fill="#F2BF9C" transform="translate(0,0)"/>
<path d="" fill="#F0BE9B" transform="translate(0,0)"/>
<path d="" fill="#F0BF9A" transform="translate(0,0)"/>
<path d="" fill="#F0C19F" transform="translate(0,0)"/>
<path d="" fill="#F0BE9A" transform="translate(0,0)"/>
<path d="" fill="#F2C19E" transform="translate(0,0)"/>
<path d="" fill="#F2C19D" transform="translate(0,0)"/>
<path d="" fill="#F1C09F" transform="translate(0,0)"/>
<path d="" fill="#EDC19B" transform="translate(0,0)"/>
<path d="" fill="#F0BE9C" transform="translate(0,0)"/>
<path d="" fill="#EFBE9B" transform="translate(0,0)"/>
<path d="" fill="#EEBF9A" transform="translate(0,0)"/>
<path d="" fill="#F2C09D" transform="translate(0,0)"/>
<path d="" fill="#F0BE9B" transform="translate(0,0)"/>
<path d="" fill="#F3BF9D" transform="translate(0,0)"/>
<path d="" fill="#EFBE9A" transform="translate(0,0)"/>
<path d="" fill="#F1BF9B" transform="translate(0,0)"/>
<path d="" fill="#E8B998" transform="translate(0,0)"/>
<path d="" fill="#EFC09E" transform="translate(0,0)"/>
<path d="" fill="#F1C19C" transform="translate(0,0)"/>
<path d="" fill="#F0BF99" transform="translate(0,0)"/>
<path d="" fill="#F0BE9B" transform="translate(0,0)"/>
<path d="" fill="#EFBF9A" transform="translate(0,0)"/>
<path d="" fill="#F0BE9C" transform="translate(0,0)"/>
<path d="" fill="#EFBF9D" transform="translate(0,0)"/>
<path d="" fill="#F2C09D" transform="translate(0,0)"/>
<path d="" fill="#F2C09D" transform="translate(0,0)"/>
<path d="" fill="#F0BF9D" transform="translate(0,0)"/>
<path d="" fill="#F0BF9B" transform="translate(0,0)"/>
<path d="" fill="#F0BF9B" transform="translate(0,0)"/>
<path d="" fill="#F1C09D" transform="translate(0,0)"/>
<path d="" fill="#F1BF9D" transform="translate(0,0)"/>
<path d="" fill="#E9BB97" transform="translate(0,0)"/>
<path d="" fill="#F1BF9C" transform="translate(0,0)"/>
<path d="" fill="#F1BF9D" transform="translate(0,0)"/>
<path d="" fill="#F1BF9D" transform="translate(0,0)"/>
<path d="" fill="#F0BE9C" transform="translate(0,0)"/>
<path d="" fill="#F2C09D" transform="translate(0,0)"/>
<path d="" fill="#F0C09E" transform="translate(0,0)"/>
<path d="" fill="#F1C09D" transform="translate(0,0)"/>
<path d="" fill="#7B695C" transform="translate(0,0)"/>
<path d="" fill="#E9B998" transform="translate(0,0)"/>
<path d="" fill="#EFBC9B" transform="translate(0,0)"/>
<path d="" fill="#F0BD9B" transform="translate(0,0)"/>
<path d="" fill="#F1BF9C" transform="translate(0,0)"/>
<path d="" fill="#F2C09B" transform="translate(0,0)"/>
<path d="" fill="#F1C09D" transform="translate(0,0)"/>
<path d="" fill="#F0BF9D" transform="translate(0,0)"/>
<path d="" fill="#F0BF9C" transform="translate(0,0)"/>
<path d="" fill="#E9B997" transform="translate(0,0)"/>
<path d="" fill="#EFBE9C" transform="translate(0,0)"/>
<path d="" fill="#F0C09B" transform="translate(0,0)"/>
<path d="" fill="#F0BF9C" transform="translate(0,0)"/>
<path d="" fill="#F0BE9D" transform="translate(0,0)"/>
<path d="" fill="#F1C19A" transform="translate(0,0)"/>
<path d="" fill="#EFBD9A" transform="translate(0,0)"/>
<path d="" fill="#EDC09A" transform="translate(0,0)"/>
<path d="" fill="#F0BF9C" transform="translate(0,0)"/>
<path d="" fill="#E7BA97" transform="translate(0,0)"/>
<path d="" fill="#F0BC98" transform="translate(0,0)"/>
<path d="" fill="#EDBD9A" transform="translate(0,0)"/>
<path d="" fill="#EFBE9A" transform="translate(0,0)"/>
<path d="" fill="#F1BF9B" transform="translate(0,0)"/>
<path d="" fill="#EFBE9D" transform="translate(0,0)"/>
<path d="" fill="#EEBD99" transform="translate(0,0)"/>
<path d="" fill="#E8BA98" transform="translate(0,0)"/>
<path d="" fill="#F0BE9D" transform="translate(0,0)"/>
<path d="" fill="#EEBE9C" transform="translate(0,0)"/>
<path d="" fill="#F1BF9C" transform="translate(0,0)"/>
<path d="" fill="#F1BF9C" transform="translate(0,0)"/>
<path d="" fill="#EFBF9C" transform="translate(0,0)"/>
<path d="" fill="#F2BF9B" transform="translate(0,0)"/>
<path d="" fill="#F1BF9C" transform="translate(0,0)"/>
<path d="" fill="#F1C19D" transform="translate(0,0)"/>
<path d="" fill="#F2BD9B" transform="translate(0,0)"/>
<path d="" fill="#EBBA96" transform="translate(0,0)"/>
<path d="" fill="#E6B895" transform="translate(0,0)"/>
<path d="" fill="#E9B997" transform="translate(0,0)"/>
<path d="" fill="#E6B894" transform="translate(0,0)"/>
<path d="" fill="#EFBE9D" transform="translate(0,0)"/>
<path d="" fill="#EFBD9B" transform="translate(0,0)"/>
<path d="" fill="#EFBC98" transform="translate(0,0)"/>
<path d="" fill="#EEBE9C" transform="translate(0,0)"/>
<path d="" fill="#EABC99" transform="translate(0,0)"/>
<path d="" fill="#EABB98" transform="translate(0,0)"/>
<path d="" fill="#EABB99" transform="translate(0,0)"/>
<path d="" fill="#E6B795" transform="translate(0,0)"/>
<path d="" fill="#EEBE9A" transform="translate(0,0)"/>
<path d="" fill="#EBBD99" transform="translate(0,0)"/>
<path d="" fill="#EDBC9B" transform="translate(0,0)"/>
<path d="" fill="#EEBD99" transform="translate(0,0)"/>
<path d="" fill="#ECBB98" transform="translate(0,0)"/>
<path d="" fill="#E9B996" transform="translate(0,0)"/>
<path d="" fill="#EBBB9A" transform="translate(0,0)"/>
<path d="" fill="#EBBB96" transform="translate(0,0)"/>
<path d="" fill="#E1B491" transform="translate(0,0)"/>
<path d="" fill="#E7B998" transform="translate(0,0)"/>
<path d="" fill="#EABB97" transform="translate(0,0)"/>
<path d="" fill="#E3B592" transform="translate(0,0)"/>
<path d="" fill="#D8AD8C" transform="translate(0,0)"/>
<path d="" fill="#E8B896" transform="translate(0,0)"/>
<path d="" fill="#D5AB8C" transform="translate(0,0)"/>
<path d="" fill="#D5A889" transform="translate(0,0)"/>
<path d="" fill="#EABA97" transform="translate(0,0)"/>
<path d="" fill="#E9BB96" transform="translate(0,0)"/>
<path d="" fill="#CAA082" transform="translate(0,0)"/>
<path d="" fill="#EBBA97" transform="translate(0,0)"/>
<path d="" fill="#E9B997" transform="translate(0,0)"/>
<path d="" fill="#C0997E" transform="translate(0,0)"/>
<path d="" fill="#EAB998" transform="translate(0,0)"/>
<path d="" fill="#EABC9A" transform="translate(0,0)"/>
<path d="" fill="#E9BC99" transform="translate(0,0)"/>
<path d="" fill="#EBBC98" transform="translate(0,0)"/>
<path d="" fill="#EABA97" transform="translate(0,0)"/>
<path d="" fill="#ECBC99" transform="translate(0,0)"/>
<path d="" fill="#EDBB98" transform="translate(0,0)"/>
</svg>
